<?xml version="1.0" encoding="UTF-8"?><svg id="Layer_1" xmlns="http://www.w3.org/2000/svg" viewBox="0 0 145 14.9"><defs><style>.cls-1{fill:#FFFFFF;stroke-width:0px;}</style></defs><path class="cls-1" d="M29.46,13.48h-1.82V4.16h2.48c1.96,0,3.23.78,3.23,2.89,0,1.98-1.08,2.94-2.98,2.94h-.9v3.49ZM29.46,8.49h.37c1.08,0,1.66-.23,1.66-1.45s-.69-1.37-1.71-1.37h-.32v2.82Z"/><path class="cls-1" d="M41.77,7.83v-3.67h1.82v9.32h-1.82v-4.17h-3.37v4.17h-1.82V4.16h1.82v3.67h3.37Z"/><path class="cls-1" d="M51.13,13.73c-2.85,0-4.62-2.18-4.62-4.92s1.83-4.89,4.62-4.89,4.62,2.13,4.62,4.89-1.77,4.92-4.62,4.92ZM51.13,5.71c-1.72,0-2.74,1.52-2.74,3.03s.72,3.2,2.74,3.2,2.74-1.77,2.74-3.2c0-1.51-1.01-3.03-2.74-3.03Z"/><path class="cls-1" d="M61.7,13.48h-1.82v-7.74h-1.88v-1.58h5.58v1.58h-1.88v7.74Z"/><path class="cls-1" d="M70.59,13.73c-2.85,0-4.62-2.18-4.62-4.92s1.83-4.89,4.62-4.89,4.62,2.13,4.62,4.89-1.77,4.92-4.62,4.92ZM70.59,5.71c-1.72,0-2.74,1.52-2.74,3.03s.72,3.2,2.74,3.2,2.74-1.77,2.74-3.2c0-1.51-1.02-3.03-2.74-3.03Z"/><path class="cls-1" d="M80.31,13.48h-1.82V4.16h2.48c1.96,0,3.23.78,3.23,2.89,0,1.98-1.08,2.94-2.98,2.94h-.9v3.49ZM80.31,8.49h.37c1.08,0,1.66-.23,1.66-1.45s-.69-1.37-1.71-1.37h-.32v2.82Z"/><path class="cls-1" d="M91.73,13.73c-2.85,0-4.62-2.18-4.62-4.92s1.83-4.89,4.62-4.89,4.62,2.13,4.62,4.89-1.77,4.92-4.62,4.92ZM91.73,5.71c-1.72,0-2.74,1.52-2.74,3.03s.72,3.2,2.74,3.2,2.74-1.77,2.74-3.2c0-1.51-1.01-3.03-2.74-3.03Z"/><path class="cls-1" d="M101.53,11.9h2.57v1.58h-4.39V4.16h1.82v7.74Z"/><path class="cls-1" d="M109.84,13.48h-1.82V4.16h1.82v9.32Z"/><path class="cls-1" d="M117.35,13.48h-1.82v-7.74h-1.88v-1.58h5.58v1.58h-1.88v7.74Z"/><path class="cls-1" d="M125.18,13.48h-1.82V4.16h1.82v9.32Z"/><path class="cls-1" d="M135.46,6.63c-.51-.62-1.27-.99-2.06-.99-1.74,0-2.75,1.61-2.75,3.21s1.04,3.14,2.74,3.14c.78,0,1.56-.41,2.07-.99v2.16c-.68.32-1.36.56-2.12.56-2.62,0-4.57-2.26-4.57-4.83s1.87-4.98,4.6-4.98c.73,0,1.45.2,2.08.54v2.18Z"/><path class="cls-1" d="M141.39,10.15v.4h-1.12v2.93h-.46v-2.93h-1.12v-.4h2.7Z"/><path class="cls-1" d="M141.8,10.15h.65l.96,2.81.95-2.81h.64v3.33h-.43v-1.96c0-.07,0-.18,0-.34,0-.16,0-.33,0-.51l-.95,2.81h-.45l-.96-2.81v.1c0,.08,0,.21,0,.37,0,.17,0,.29,0,.37v1.96h-.43v-3.33Z"/><path class="cls-1" d="M0,4.43C0,1.91,1.96,0,4.84,0h5.78v14.9h-2.37v-5.84h-3.51c-2.78-.1-4.74-2.01-4.74-4.63ZM2.27,4.43c0,1.61,1.03,2.52,2.68,2.52h3.3V1.92h-3.3c-1.66.09-2.68,1-2.68,2.51Z"/><path class="cls-1" d="M17.26,9.06h-3.51v5.84h-2.37V0h5.78c2.89,0,4.84,1.91,4.84,4.43,0,2.61-1.95,4.53-4.74,4.63ZM17.05,1.91h-3.3v5.03h3.3c1.65,0,2.68-.91,2.68-2.52,0-1.5-1.03-2.41-2.68-2.51Z"/></svg>