<?xml version="1.0" encoding="UTF-8"?>
<svg version="1.1" xmlns="http://www.w3.org/2000/svg" width="1080" height="1080">
<path d="M0 0 C356.4 0 712.8 0 1080 0 C1080 356.4 1080 712.8 1080 1080 C723.6 1080 367.2 1080 0 1080 C0 723.6 0 367.2 0 0 Z " fill="#FEFEFE" transform="translate(0,0)"/>
<path d="M0 0 C0 61.38 0 122.76 0 186 C-9.9 186 -19.8 186 -30 186 C-30 161.91 -30 137.82 -30 113 C-46.10880032 113.15742163 -46.10880032 113.15742163 -62.21704102 113.36035156 C-84.10507032 113.54458976 -102.702925 109.91088839 -119 94 C-130.74963586 80.2735823 -134.04465363 64.82271735 -133.19970703 47.24853516 C-132.74449077 42.12317844 -131.14823513 37.63566528 -129 33 C-128.649375 32.21625 -128.29875 31.4325 -127.9375 30.625 C-121.27702163 17.30404326 -109.78801407 8.70919154 -96.34765625 3.04296875 C-65.67013293 -6.5146727 -32.13189921 0 0 0 Z " fill="#030303" transform="translate(430,354)"/>
<path d="M0 0 C100.40104167 0 100.40104167 0 117.81640625 16.71875 C129.04056524 28.4448839 133.57042163 41.88528972 133.3125 57.95703125 C132.46196151 72.51895898 126.89938566 87.04667313 116 97 C101.42727623 108.72540732 85.84965918 113.38573465 67.20703125 113.1953125 C66.25485718 113.19329834 65.30268311 113.19128418 64.32165527 113.18920898 C60.81855339 113.17886999 57.31552103 113.15094915 53.8125 113.125 C42.0253125 113.063125 42.0253125 113.063125 30 113 C30 137.09 30 161.18 30 186 C20.1 186 10.2 186 0 186 C0 124.62 0 63.24 0 0 Z " fill="#030303" transform="translate(439,354)"/>
<path d="M0 0 C7.858125 -0.0825 15.71625 -0.165 23.8125 -0.25 C26.27050049 -0.28641602 28.72850098 -0.32283203 31.26098633 -0.36035156 C33.24299246 -0.37205088 35.22500832 -0.38223974 37.20703125 -0.390625 C38.20875366 -0.41108887 39.21047607 -0.43155273 40.24255371 -0.45263672 C49.86634705 -0.45731926 59.95107674 2.03918828 67 9 C73.97561589 17.57419453 76.08213204 26.04170084 75 37 C73.14765548 45.34109628 69.29580126 52.62719882 61.9453125 57.30859375 C59.98784218 58.31687563 58.04648727 59.18943053 56 60 C55.24217728 60.34159149 54.48435455 60.68318298 53.7035675 61.03512573 C50.84886446 62.05393865 48.7687496 62.24202853 45.75073242 62.22705078 C44.71589722 62.22680908 43.68106201 62.22656738 42.61486816 62.22631836 C41.53926636 62.21608643 40.46366455 62.20585449 39.35546875 62.1953125 C38.35793579 62.19329834 37.36040283 62.19128418 36.3326416 62.18920898 C32.61754742 62.17876976 28.90251894 62.15084719 25.1875 62.125 C16.875625 62.08375 8.56375 62.0425 0 62 C0 41.54 0 21.08 0 0 Z " fill="#FEFEFE" transform="translate(469,378)"/>
<path d="M0 0 C7.486875 0.0825 14.97375 0.165 22.6875 0.25 C22.6875 20.71 22.6875 41.17 22.6875 62.25 C14.623125 62.311875 6.55875 62.37375 -1.75 62.4375 C-4.27841553 62.46481201 -6.80683105 62.49212402 -9.41186523 62.52026367 C-11.43993656 62.52903431 -13.46801322 62.53667688 -15.49609375 62.54296875 C-16.52963989 62.55831665 -17.56318604 62.57366455 -18.62805176 62.58947754 C-28.30908746 62.59293876 -36.78425333 60.6833993 -43.90625 53.68359375 C-51.6725693 45.17490569 -52.0310864 37.07464372 -51.71484375 26.0234375 C-51.36525579 20.37557714 -50.16977979 16.47031789 -46.3125 12.25 C-45.69246094 11.53714844 -45.07242187 10.82429688 -44.43359375 10.08984375 C-32.41318589 -2.10766035 -15.78057625 -0.24606963 0 0 Z " fill="#FEFEFE" transform="translate(377.3125,377.75)"/>
</svg>
